<?xml version="1.0" encoding="utf-8" standalone="no"?>
<!DOCTYPE svg PUBLIC "-//W3C//DTD SVG 1.1//EN"
  "http://www.w3.org/Graphics/SVG/1.1/DTD/svg11.dtd">
<svg xmlns:xlink="http://www.w3.org/1999/xlink" width="576pt" height="576pt" viewBox="0 0 576 576" xmlns="http://www.w3.org/2000/svg" version="1.1">
 <metadata>
  <rdf:RDF xmlns:dc="http://purl.org/dc/elements/1.1/" xmlns:cc="http://creativecommons.org/ns#" xmlns:rdf="http://www.w3.org/1999/02/22-rdf-syntax-ns#">
   <cc:Work>
    <dc:type rdf:resource="http://purl.org/dc/dcmitype/StillImage"/>
    <dc:date>2024-09-08T02:31:38.255958</dc:date>
    <dc:format>image/svg+xml</dc:format>
    <dc:creator>
     <cc:Agent>
      <dc:title>Matplotlib v3.7.1, https://matplotlib.org/</dc:title>
     </cc:Agent>
    </dc:creator>
   </cc:Work>
  </rdf:RDF>
 </metadata>
 <defs>
  <style type="text/css">*{stroke-linejoin: round; stroke-linecap: butt}</style>
 </defs>
 <g id="figure_1">
  <g id="patch_1">
   <path d="M 0 576 
L 576 576 
L 576 0 
L 0 0 
z
" style="fill: #ffffff"/>
  </g>
  <g id="axes_1">
   <g id="patch_2">
    <path d="M 522.604863 288.807674 
C 522.604863 257.959872 516.528518 227.412026 504.723576 198.912374 
C 492.918633 170.412721 475.614668 144.515508 453.801979 122.702818 
C 431.989289 100.890128 406.092075 83.586163 377.592423 71.78122 
C 349.09277 59.976278 318.544924 53.899933 287.697122 53.899933 
C 256.84932 53.899933 226.301475 59.976278 197.801822 71.78122 
C 169.302169 83.586163 143.404956 100.890128 121.592266 122.702818 
C 99.779576 144.515508 82.475612 170.412721 70.670669 198.912374 
C 58.865726 227.412026 52.789382 257.959872 52.789382 288.807674 
C 52.789382 319.655476 58.865726 350.203322 70.670669 378.702974 
C 82.475612 407.202627 99.779576 433.09984 121.592266 454.91253 
C 143.404956 476.72522 169.302169 494.029185 197.801822 505.834127 
C 226.301475 517.63907 256.84932 523.715414 287.697122 523.715414 
C 318.544924 523.715414 349.09277 517.63907 377.592423 505.834127 
C 406.092075 494.029185 431.989289 476.72522 453.801979 454.91253 
C 475.614668 433.09984 492.918633 407.202627 504.723576 378.702974 
C 516.528518 350.203322 522.604863 319.655476 522.604863 288.807674 
M 287.697122 288.807674 
C 287.697122 288.807674 287.697122 288.807674 287.697122 288.807674 
C 287.697122 288.807674 287.697122 288.807674 287.697122 288.807674 
C 287.697122 288.807674 287.697122 288.807674 287.697122 288.807674 
C 287.697122 288.807674 287.697122 288.807674 287.697122 288.807674 
C 287.697122 288.807674 287.697122 288.807674 287.697122 288.807674 
C 287.697122 288.807674 287.697122 288.807674 287.697122 288.807674 
C 287.697122 288.807674 287.697122 288.807674 287.697122 288.807674 
C 287.697122 288.807674 287.697122 288.807674 287.697122 288.807674 
C 287.697122 288.807674 287.697122 288.807674 287.697122 288.807674 
C 287.697122 288.807674 287.697122 288.807674 287.697122 288.807674 
C 287.697122 288.807674 287.697122 288.807674 287.697122 288.807674 
C 287.697122 288.807674 287.697122 288.807674 287.697122 288.807674 
C 287.697122 288.807674 287.697122 288.807674 287.697122 288.807674 
C 287.697122 288.807674 287.697122 288.807674 287.697122 288.807674 
C 287.697122 288.807674 287.697122 288.807674 287.697122 288.807674 
C 287.697122 288.807674 287.697122 288.807674 287.697122 288.807674 
z
" style="fill: #ffffff"/>
   </g>
   <g id="patch_3">
    <path d="M 333.424186 279.711995 
L 326.462655 262.905373 
L 313.599423 250.042141 
L 296.792801 243.08061 
L 278.601444 243.08061 
L 207.899743 169.382456 
L 105.567931 167.112839 
L 102.73701 252.01682 
L 66.096734 332.886732 
L 160.577098 373.746559 
L 164.505529 473.176922 
L 245.28394 502.033142 
L 296.792801 334.534738 
L 313.599423 327.573207 
L 326.462655 314.709975 
L 333.424186 297.903353 
z
" clip-path="url(#p3c03bce491)" style="fill: #44bb99; opacity: 0.2; stroke: #44bb99; stroke-linejoin: miter"/>
   </g>
   <g id="patch_4">
    <path d="M 495.114178 247.549856 
L 450.711159 179.885177 
L 364.626471 173.674768 
L 304.743569 203.1094 
L 277.9877 239.995113 
L 261.794821 250.042141 
L 248.931589 262.905373 
L 241.970058 279.711995 
L 241.970058 297.903353 
L 248.931589 314.709975 
L 261.794821 327.573207 
L 278.601444 334.534738 
L 322.535287 463.950957 
L 407.798577 468.552202 
L 436.627204 388.319573 
L 462.182162 323.514906 
z
" clip-path="url(#p3c03bce491)" style="fill: #77a9dd; opacity: 0.2; stroke: #77a9dd; stroke-linejoin: miter"/>
   </g>
   <g id="patch_5">
    <path d="M 509.29751 244.728616 
L 475.56086 163.281138 
L 413.223659 100.943936 
L 331.77618 67.207286 
L 243.618064 67.207286 
L 162.170586 100.943936 
L 99.833385 163.281138 
L 66.096734 244.728616 
L 66.096734 332.886732 
L 99.833385 414.33421 
L 162.170586 476.671412 
L 243.618064 510.408062 
L 331.77618 510.408062 
L 413.223659 476.671412 
L 475.56086 414.33421 
L 509.29751 332.886732 
z
" clip-path="url(#p3c03bce491)" style="fill: #ee8866; opacity: 0.2; stroke: #ee8866; stroke-linejoin: miter"/>
   </g>
   <g id="matplotlib.axis_1">
    <g id="xtick_1">
     <g id="line2d_1">
      <path d="M 287.697122 288.807674 
L 518.091176 242.979447 
" clip-path="url(#p3c03bce491)" style="fill: none; stroke: #b0b0b0; stroke-width: 0.8; stroke-linecap: square"/>
     </g>
    </g>
    <g id="xtick_2">
     <g id="line2d_2">
      <path d="M 287.697122 288.807674 
L 483.01577 158.299926 
" clip-path="url(#p3c03bce491)" style="fill: none; stroke: #b0b0b0; stroke-width: 0.8; stroke-linecap: square"/>
     </g>
    </g>
    <g id="xtick_3">
     <g id="line2d_3">
      <path d="M 287.697122 288.807674 
L 418.20487 93.489026 
" clip-path="url(#p3c03bce491)" style="fill: none; stroke: #b0b0b0; stroke-width: 0.8; stroke-linecap: square"/>
     </g>
    </g>
    <g id="xtick_4">
     <g id="line2d_4">
      <path d="M 287.697122 288.807674 
L 333.525349 58.41362 
" clip-path="url(#p3c03bce491)" style="fill: none; stroke: #b0b0b0; stroke-width: 0.8; stroke-linecap: square"/>
     </g>
    </g>
    <g id="xtick_5">
     <g id="line2d_5">
      <path d="M 287.697122 288.807674 
L 241.868896 58.41362 
" clip-path="url(#p3c03bce491)" style="fill: none; stroke: #b0b0b0; stroke-width: 0.8; stroke-linecap: square"/>
     </g>
    </g>
    <g id="xtick_6">
     <g id="line2d_6">
      <path d="M 287.697122 288.807674 
L 157.189374 93.489026 
" clip-path="url(#p3c03bce491)" style="fill: none; stroke: #b0b0b0; stroke-width: 0.8; stroke-linecap: square"/>
     </g>
    </g>
    <g id="xtick_7">
     <g id="line2d_7">
      <path d="M 287.697122 288.807674 
L 92.378474 158.299926 
" clip-path="url(#p3c03bce491)" style="fill: none; stroke: #b0b0b0; stroke-width: 0.8; stroke-linecap: square"/>
     </g>
    </g>
    <g id="xtick_8">
     <g id="line2d_8">
      <path d="M 287.697122 288.807674 
L 57.303068 242.979447 
" clip-path="url(#p3c03bce491)" style="fill: none; stroke: #b0b0b0; stroke-width: 0.8; stroke-linecap: square"/>
     </g>
    </g>
    <g id="xtick_9">
     <g id="line2d_9">
      <path d="M 287.697122 288.807674 
L 57.303068 334.635901 
" clip-path="url(#p3c03bce491)" style="fill: none; stroke: #b0b0b0; stroke-width: 0.8; stroke-linecap: square"/>
     </g>
    </g>
    <g id="xtick_10">
     <g id="line2d_10">
      <path d="M 287.697122 288.807674 
L 92.378474 419.315422 
" clip-path="url(#p3c03bce491)" style="fill: none; stroke: #b0b0b0; stroke-width: 0.8; stroke-linecap: square"/>
     </g>
    </g>
    <g id="xtick_11">
     <g id="line2d_11">
      <path d="M 287.697122 288.807674 
L 157.189374 484.126322 
" clip-path="url(#p3c03bce491)" style="fill: none; stroke: #b0b0b0; stroke-width: 0.8; stroke-linecap: square"/>
     </g>
    </g>
    <g id="xtick_12">
     <g id="line2d_12">
      <path d="M 287.697122 288.807674 
L 241.868896 519.201728 
" clip-path="url(#p3c03bce491)" style="fill: none; stroke: #b0b0b0; stroke-width: 0.8; stroke-linecap: square"/>
     </g>
    </g>
    <g id="xtick_13">
     <g id="line2d_13">
      <path d="M 287.697122 288.807674 
L 333.525349 519.201728 
" clip-path="url(#p3c03bce491)" style="fill: none; stroke: #b0b0b0; stroke-width: 0.8; stroke-linecap: square"/>
     </g>
    </g>
    <g id="xtick_14">
     <g id="line2d_14">
      <path d="M 287.697122 288.807674 
L 418.20487 484.126322 
" clip-path="url(#p3c03bce491)" style="fill: none; stroke: #b0b0b0; stroke-width: 0.8; stroke-linecap: square"/>
     </g>
    </g>
    <g id="xtick_15">
     <g id="line2d_15">
      <path d="M 287.697122 288.807674 
L 483.01577 419.315422 
" clip-path="url(#p3c03bce491)" style="fill: none; stroke: #b0b0b0; stroke-width: 0.8; stroke-linecap: square"/>
     </g>
    </g>
    <g id="xtick_16">
     <g id="line2d_16">
      <path d="M 287.697122 288.807674 
L 518.091176 334.635901 
" clip-path="url(#p3c03bce491)" style="fill: none; stroke: #b0b0b0; stroke-width: 0.8; stroke-linecap: square"/>
     </g>
    </g>
   </g>
   <g id="matplotlib.axis_2"/>
   <g id="line2d_17">
    <path d="M 333.424186 279.711995 
L 326.462655 262.905373 
L 313.599423 250.042141 
L 296.792801 243.08061 
L 278.601444 243.08061 
L 207.899743 169.382456 
L 105.567931 167.112839 
L 102.73701 252.01682 
L 66.096734 332.886732 
L 160.577098 373.746559 
L 164.505529 473.176922 
L 245.28394 502.033142 
L 296.792801 334.534738 
L 313.599423 327.573207 
L 326.462655 314.709975 
L 333.424186 297.903353 
L 333.424186 279.711995 
" clip-path="url(#p3c03bce491)" style="fill: none; stroke: #44bb99; stroke-width: 2; stroke-linecap: square"/>
   </g>
   <g id="line2d_18">
    <path d="M 495.114178 247.549856 
L 450.711159 179.885177 
L 364.626471 173.674768 
L 304.743569 203.1094 
L 277.9877 239.995113 
L 261.794821 250.042141 
L 248.931589 262.905373 
L 241.970058 279.711995 
L 241.970058 297.903353 
L 248.931589 314.709975 
L 261.794821 327.573207 
L 278.601444 334.534738 
L 322.535287 463.950957 
L 407.798577 468.552202 
L 436.627204 388.319573 
L 462.182162 323.514906 
L 495.114178 247.549856 
" clip-path="url(#p3c03bce491)" style="fill: none; stroke: #77a9dd; stroke-width: 2; stroke-linecap: square"/>
   </g>
   <g id="line2d_19">
    <path d="M 509.29751 244.728616 
L 475.56086 163.281138 
L 413.223659 100.943936 
L 331.77618 67.207286 
L 243.618064 67.207286 
L 162.170586 100.943936 
L 99.833385 163.281138 
L 66.096734 244.728616 
L 66.096734 332.886732 
L 99.833385 414.33421 
L 162.170586 476.671412 
L 243.618064 510.408062 
L 331.77618 510.408062 
L 413.223659 476.671412 
L 475.56086 414.33421 
L 509.29751 332.886732 
L 509.29751 244.728616 
" clip-path="url(#p3c03bce491)" style="fill: none; stroke: #ee8866; stroke-width: 2; stroke-linecap: square"/>
   </g>
   <g id="text_1">
    <!-- Pets -->
    <g transform="translate(544.379832 222.798004) rotate(-281.25) scale(0.14 -0.14)">
     <defs>
      <path id="DejaVuSans-50" d="M 1259 4147 
L 1259 2394 
L 2053 2394 
Q 2494 2394 2734 2622 
Q 2975 2850 2975 3272 
Q 2975 3691 2734 3919 
Q 2494 4147 2053 4147 
L 1259 4147 
z
M 628 4666 
L 2053 4666 
Q 2838 4666 3239 4311 
Q 3641 3956 3641 3272 
Q 3641 2581 3239 2228 
Q 2838 1875 2053 1875 
L 1259 1875 
L 1259 0 
L 628 0 
L 628 4666 
z
" transform="scale(0.015625)"/>
      <path id="DejaVuSans-65" d="M 3597 1894 
L 3597 1613 
L 953 1613 
Q 991 1019 1311 708 
Q 1631 397 2203 397 
Q 2534 397 2845 478 
Q 3156 559 3463 722 
L 3463 178 
Q 3153 47 2828 -22 
Q 2503 -91 2169 -91 
Q 1331 -91 842 396 
Q 353 884 353 1716 
Q 353 2575 817 3079 
Q 1281 3584 2069 3584 
Q 2775 3584 3186 3129 
Q 3597 2675 3597 1894 
z
M 3022 2063 
Q 3016 2534 2758 2815 
Q 2500 3097 2075 3097 
Q 1594 3097 1305 2825 
Q 1016 2553 972 2059 
L 3022 2063 
z
" transform="scale(0.015625)"/>
      <path id="DejaVuSans-74" d="M 1172 4494 
L 1172 3500 
L 2356 3500 
L 2356 3053 
L 1172 3053 
L 1172 1153 
Q 1172 725 1289 603 
Q 1406 481 1766 481 
L 2356 481 
L 2356 0 
L 1766 0 
Q 1100 0 847 248 
Q 594 497 594 1153 
L 594 3053 
L 172 3053 
L 172 3500 
L 594 3500 
L 594 4494 
L 1172 4494 
z
" transform="scale(0.015625)"/>
      <path id="DejaVuSans-73" d="M 2834 3397 
L 2834 2853 
Q 2591 2978 2328 3040 
Q 2066 3103 1784 3103 
Q 1356 3103 1142 2972 
Q 928 2841 928 2578 
Q 928 2378 1081 2264 
Q 1234 2150 1697 2047 
L 1894 2003 
Q 2506 1872 2764 1633 
Q 3022 1394 3022 966 
Q 3022 478 2636 193 
Q 2250 -91 1575 -91 
Q 1294 -91 989 -36 
Q 684 19 347 128 
L 347 722 
Q 666 556 975 473 
Q 1284 391 1588 391 
Q 1994 391 2212 530 
Q 2431 669 2431 922 
Q 2431 1156 2273 1281 
Q 2116 1406 1581 1522 
L 1381 1569 
Q 847 1681 609 1914 
Q 372 2147 372 2553 
Q 372 3047 722 3315 
Q 1072 3584 1716 3584 
Q 2034 3584 2315 3537 
Q 2597 3491 2834 3397 
z
" transform="scale(0.015625)"/>
     </defs>
     <use xlink:href="#DejaVuSans-50"/>
     <use xlink:href="#DejaVuSans-65" x="56.677734"/>
     <use xlink:href="#DejaVuSans-74" x="118.201172"/>
     <use xlink:href="#DejaVuSans-73" x="157.410156"/>
    </g>
    <!-- Probe -->
    <g transform="translate(527.992061 220.768446) rotate(-281.25) scale(0.14 -0.14)">
     <defs>
      <path id="DejaVuSans-72" d="M 2631 2963 
Q 2534 3019 2420 3045 
Q 2306 3072 2169 3072 
Q 1681 3072 1420 2755 
Q 1159 2438 1159 1844 
L 1159 0 
L 581 0 
L 581 3500 
L 1159 3500 
L 1159 2956 
Q 1341 3275 1631 3429 
Q 1922 3584 2338 3584 
Q 2397 3584 2469 3576 
Q 2541 3569 2628 3553 
L 2631 2963 
z
" transform="scale(0.015625)"/>
      <path id="DejaVuSans-6f" d="M 1959 3097 
Q 1497 3097 1228 2736 
Q 959 2375 959 1747 
Q 959 1119 1226 758 
Q 1494 397 1959 397 
Q 2419 397 2687 759 
Q 2956 1122 2956 1747 
Q 2956 2369 2687 2733 
Q 2419 3097 1959 3097 
z
M 1959 3584 
Q 2709 3584 3137 3096 
Q 3566 2609 3566 1747 
Q 3566 888 3137 398 
Q 2709 -91 1959 -91 
Q 1206 -91 779 398 
Q 353 888 353 1747 
Q 353 2609 779 3096 
Q 1206 3584 1959 3584 
z
" transform="scale(0.015625)"/>
      <path id="DejaVuSans-62" d="M 3116 1747 
Q 3116 2381 2855 2742 
Q 2594 3103 2138 3103 
Q 1681 3103 1420 2742 
Q 1159 2381 1159 1747 
Q 1159 1113 1420 752 
Q 1681 391 2138 391 
Q 2594 391 2855 752 
Q 3116 1113 3116 1747 
z
M 1159 2969 
Q 1341 3281 1617 3432 
Q 1894 3584 2278 3584 
Q 2916 3584 3314 3078 
Q 3713 2572 3713 1747 
Q 3713 922 3314 415 
Q 2916 -91 2278 -91 
Q 1894 -91 1617 61 
Q 1341 213 1159 525 
L 1159 0 
L 581 0 
L 581 4863 
L 1159 4863 
L 1159 2969 
z
" transform="scale(0.015625)"/>
     </defs>
     <use xlink:href="#DejaVuSans-50"/>
     <use xlink:href="#DejaVuSans-72" x="58.552734"/>
     <use xlink:href="#DejaVuSans-6f" x="97.416016"/>
     <use xlink:href="#DejaVuSans-62" x="158.597656"/>
     <use xlink:href="#DejaVuSans-65" x="222.074219"/>
    </g>
   </g>
   <g id="text_2">
    <!-- CIFAR-100 -->
    <g transform="translate(487.949702 112.188174) rotate(-303.75) scale(0.14 -0.14)">
     <defs>
      <path id="DejaVuSans-43" d="M 4122 4306 
L 4122 3641 
Q 3803 3938 3442 4084 
Q 3081 4231 2675 4231 
Q 1875 4231 1450 3742 
Q 1025 3253 1025 2328 
Q 1025 1406 1450 917 
Q 1875 428 2675 428 
Q 3081 428 3442 575 
Q 3803 722 4122 1019 
L 4122 359 
Q 3791 134 3420 21 
Q 3050 -91 2638 -91 
Q 1578 -91 968 557 
Q 359 1206 359 2328 
Q 359 3453 968 4101 
Q 1578 4750 2638 4750 
Q 3056 4750 3426 4639 
Q 3797 4528 4122 4306 
z
" transform="scale(0.015625)"/>
      <path id="DejaVuSans-49" d="M 628 4666 
L 1259 4666 
L 1259 0 
L 628 0 
L 628 4666 
z
" transform="scale(0.015625)"/>
      <path id="DejaVuSans-46" d="M 628 4666 
L 3309 4666 
L 3309 4134 
L 1259 4134 
L 1259 2759 
L 3109 2759 
L 3109 2228 
L 1259 2228 
L 1259 0 
L 628 0 
L 628 4666 
z
" transform="scale(0.015625)"/>
      <path id="DejaVuSans-41" d="M 2188 4044 
L 1331 1722 
L 3047 1722 
L 2188 4044 
z
M 1831 4666 
L 2547 4666 
L 4325 0 
L 3669 0 
L 3244 1197 
L 1141 1197 
L 716 0 
L 50 0 
L 1831 4666 
z
" transform="scale(0.015625)"/>
      <path id="DejaVuSans-52" d="M 2841 2188 
Q 3044 2119 3236 1894 
Q 3428 1669 3622 1275 
L 4263 0 
L 3584 0 
L 2988 1197 
Q 2756 1666 2539 1819 
Q 2322 1972 1947 1972 
L 1259 1972 
L 1259 0 
L 628 0 
L 628 4666 
L 2053 4666 
Q 2853 4666 3247 4331 
Q 3641 3997 3641 3322 
Q 3641 2881 3436 2590 
Q 3231 2300 2841 2188 
z
M 1259 4147 
L 1259 2491 
L 2053 2491 
Q 2509 2491 2742 2702 
Q 2975 2913 2975 3322 
Q 2975 3731 2742 3939 
Q 2509 4147 2053 4147 
L 1259 4147 
z
" transform="scale(0.015625)"/>
      <path id="DejaVuSans-2d" d="M 313 2009 
L 1997 2009 
L 1997 1497 
L 313 1497 
L 313 2009 
z
" transform="scale(0.015625)"/>
      <path id="DejaVuSans-31" d="M 794 531 
L 1825 531 
L 1825 4091 
L 703 3866 
L 703 4441 
L 1819 4666 
L 2450 4666 
L 2450 531 
L 3481 531 
L 3481 0 
L 794 0 
L 794 531 
z
" transform="scale(0.015625)"/>
      <path id="DejaVuSans-30" d="M 2034 4250 
Q 1547 4250 1301 3770 
Q 1056 3291 1056 2328 
Q 1056 1369 1301 889 
Q 1547 409 2034 409 
Q 2525 409 2770 889 
Q 3016 1369 3016 2328 
Q 3016 3291 2770 3770 
Q 2525 4250 2034 4250 
z
M 2034 4750 
Q 2819 4750 3233 4129 
Q 3647 3509 3647 2328 
Q 3647 1150 3233 529 
Q 2819 -91 2034 -91 
Q 1250 -91 836 529 
Q 422 1150 422 2328 
Q 422 3509 836 4129 
Q 1250 4750 2034 4750 
z
" transform="scale(0.015625)"/>
     </defs>
     <use xlink:href="#DejaVuSans-43"/>
     <use xlink:href="#DejaVuSans-49" x="69.824219"/>
     <use xlink:href="#DejaVuSans-46" x="99.316406"/>
     <use xlink:href="#DejaVuSans-41" x="147.710938"/>
     <use xlink:href="#DejaVuSans-52" x="216.119141"/>
     <use xlink:href="#DejaVuSans-2d" x="281.601562"/>
     <use xlink:href="#DejaVuSans-31" x="317.685547"/>
     <use xlink:href="#DejaVuSans-30" x="381.308594"/>
     <use xlink:href="#DejaVuSans-30" x="444.931641"/>
    </g>
    <!-- Probe -->
    <g transform="translate(483.663213 133.990732) rotate(-303.75) scale(0.14 -0.14)">
     <use xlink:href="#DejaVuSans-50"/>
     <use xlink:href="#DejaVuSans-72" x="58.552734"/>
     <use xlink:href="#DejaVuSans-6f" x="97.416016"/>
     <use xlink:href="#DejaVuSans-62" x="158.597656"/>
     <use xlink:href="#DejaVuSans-65" x="222.074219"/>
    </g>
   </g>
   <g id="text_3">
    <!-- Sun397 -->
    <g transform="translate(412.535163 53.95583) rotate(-326.25) scale(0.14 -0.14)">
     <defs>
      <path id="DejaVuSans-53" d="M 3425 4513 
L 3425 3897 
Q 3066 4069 2747 4153 
Q 2428 4238 2131 4238 
Q 1616 4238 1336 4038 
Q 1056 3838 1056 3469 
Q 1056 3159 1242 3001 
Q 1428 2844 1947 2747 
L 2328 2669 
Q 3034 2534 3370 2195 
Q 3706 1856 3706 1288 
Q 3706 609 3251 259 
Q 2797 -91 1919 -91 
Q 1588 -91 1214 -16 
Q 841 59 441 206 
L 441 856 
Q 825 641 1194 531 
Q 1563 422 1919 422 
Q 2459 422 2753 634 
Q 3047 847 3047 1241 
Q 3047 1584 2836 1778 
Q 2625 1972 2144 2069 
L 1759 2144 
Q 1053 2284 737 2584 
Q 422 2884 422 3419 
Q 422 4038 858 4394 
Q 1294 4750 2059 4750 
Q 2388 4750 2728 4690 
Q 3069 4631 3425 4513 
z
" transform="scale(0.015625)"/>
      <path id="DejaVuSans-75" d="M 544 1381 
L 544 3500 
L 1119 3500 
L 1119 1403 
Q 1119 906 1312 657 
Q 1506 409 1894 409 
Q 2359 409 2629 706 
Q 2900 1003 2900 1516 
L 2900 3500 
L 3475 3500 
L 3475 0 
L 2900 0 
L 2900 538 
Q 2691 219 2414 64 
Q 2138 -91 1772 -91 
Q 1169 -91 856 284 
Q 544 659 544 1381 
z
M 1991 3584 
L 1991 3584 
z
" transform="scale(0.015625)"/>
      <path id="DejaVuSans-6e" d="M 3513 2113 
L 3513 0 
L 2938 0 
L 2938 2094 
Q 2938 2591 2744 2837 
Q 2550 3084 2163 3084 
Q 1697 3084 1428 2787 
Q 1159 2491 1159 1978 
L 1159 0 
L 581 0 
L 581 3500 
L 1159 3500 
L 1159 2956 
Q 1366 3272 1645 3428 
Q 1925 3584 2291 3584 
Q 2894 3584 3203 3211 
Q 3513 2838 3513 2113 
z
" transform="scale(0.015625)"/>
      <path id="DejaVuSans-33" d="M 2597 2516 
Q 3050 2419 3304 2112 
Q 3559 1806 3559 1356 
Q 3559 666 3084 287 
Q 2609 -91 1734 -91 
Q 1441 -91 1130 -33 
Q 819 25 488 141 
L 488 750 
Q 750 597 1062 519 
Q 1375 441 1716 441 
Q 2309 441 2620 675 
Q 2931 909 2931 1356 
Q 2931 1769 2642 2001 
Q 2353 2234 1838 2234 
L 1294 2234 
L 1294 2753 
L 1863 2753 
Q 2328 2753 2575 2939 
Q 2822 3125 2822 3475 
Q 2822 3834 2567 4026 
Q 2313 4219 1838 4219 
Q 1578 4219 1281 4162 
Q 984 4106 628 3988 
L 628 4550 
Q 988 4650 1302 4700 
Q 1616 4750 1894 4750 
Q 2613 4750 3031 4423 
Q 3450 4097 3450 3541 
Q 3450 3153 3228 2886 
Q 3006 2619 2597 2516 
z
" transform="scale(0.015625)"/>
      <path id="DejaVuSans-39" d="M 703 97 
L 703 672 
Q 941 559 1184 500 
Q 1428 441 1663 441 
Q 2288 441 2617 861 
Q 2947 1281 2994 2138 
Q 2813 1869 2534 1725 
Q 2256 1581 1919 1581 
Q 1219 1581 811 2004 
Q 403 2428 403 3163 
Q 403 3881 828 4315 
Q 1253 4750 1959 4750 
Q 2769 4750 3195 4129 
Q 3622 3509 3622 2328 
Q 3622 1225 3098 567 
Q 2575 -91 1691 -91 
Q 1453 -91 1209 -44 
Q 966 3 703 97 
z
M 1959 2075 
Q 2384 2075 2632 2365 
Q 2881 2656 2881 3163 
Q 2881 3666 2632 3958 
Q 2384 4250 1959 4250 
Q 1534 4250 1286 3958 
Q 1038 3666 1038 3163 
Q 1038 2656 1286 2365 
Q 1534 2075 1959 2075 
z
" transform="scale(0.015625)"/>
      <path id="DejaVuSans-37" d="M 525 4666 
L 3525 4666 
L 3525 4397 
L 1831 0 
L 1172 0 
L 2766 4134 
L 525 4134 
L 525 4666 
z
" transform="scale(0.015625)"/>
     </defs>
     <use xlink:href="#DejaVuSans-53"/>
     <use xlink:href="#DejaVuSans-75" x="63.476562"/>
     <use xlink:href="#DejaVuSans-6e" x="126.855469"/>
     <use xlink:href="#DejaVuSans-33" x="190.234375"/>
     <use xlink:href="#DejaVuSans-39" x="253.857422"/>
     <use xlink:href="#DejaVuSans-37" x="317.480469"/>
    </g>
    <!-- Probe -->
    <g transform="translate(409.500303 70.782494) rotate(-326.25) scale(0.14 -0.14)">
     <use xlink:href="#DejaVuSans-50"/>
     <use xlink:href="#DejaVuSans-72" x="58.552734"/>
     <use xlink:href="#DejaVuSans-6f" x="97.416016"/>
     <use xlink:href="#DejaVuSans-62" x="158.597656"/>
     <use xlink:href="#DejaVuSans-65" x="222.074219"/>
    </g>
   </g>
   <g id="text_4">
    <!-- Caltech-101 -->
    <g transform="translate(297.79161 21.002743) rotate(-348.75) scale(0.14 -0.14)">
     <defs>
      <path id="DejaVuSans-61" d="M 2194 1759 
Q 1497 1759 1228 1600 
Q 959 1441 959 1056 
Q 959 750 1161 570 
Q 1363 391 1709 391 
Q 2188 391 2477 730 
Q 2766 1069 2766 1631 
L 2766 1759 
L 2194 1759 
z
M 3341 1997 
L 3341 0 
L 2766 0 
L 2766 531 
Q 2569 213 2275 61 
Q 1981 -91 1556 -91 
Q 1019 -91 701 211 
Q 384 513 384 1019 
Q 384 1609 779 1909 
Q 1175 2209 1959 2209 
L 2766 2209 
L 2766 2266 
Q 2766 2663 2505 2880 
Q 2244 3097 1772 3097 
Q 1472 3097 1187 3025 
Q 903 2953 641 2809 
L 641 3341 
Q 956 3463 1253 3523 
Q 1550 3584 1831 3584 
Q 2591 3584 2966 3190 
Q 3341 2797 3341 1997 
z
" transform="scale(0.015625)"/>
      <path id="DejaVuSans-6c" d="M 603 4863 
L 1178 4863 
L 1178 0 
L 603 0 
L 603 4863 
z
" transform="scale(0.015625)"/>
      <path id="DejaVuSans-63" d="M 3122 3366 
L 3122 2828 
Q 2878 2963 2633 3030 
Q 2388 3097 2138 3097 
Q 1578 3097 1268 2742 
Q 959 2388 959 1747 
Q 959 1106 1268 751 
Q 1578 397 2138 397 
Q 2388 397 2633 464 
Q 2878 531 3122 666 
L 3122 134 
Q 2881 22 2623 -34 
Q 2366 -91 2075 -91 
Q 1284 -91 818 406 
Q 353 903 353 1747 
Q 353 2603 823 3093 
Q 1294 3584 2113 3584 
Q 2378 3584 2631 3529 
Q 2884 3475 3122 3366 
z
" transform="scale(0.015625)"/>
      <path id="DejaVuSans-68" d="M 3513 2113 
L 3513 0 
L 2938 0 
L 2938 2094 
Q 2938 2591 2744 2837 
Q 2550 3084 2163 3084 
Q 1697 3084 1428 2787 
Q 1159 2491 1159 1978 
L 1159 0 
L 581 0 
L 581 4863 
L 1159 4863 
L 1159 2956 
Q 1366 3272 1645 3428 
Q 1925 3584 2291 3584 
Q 2894 3584 3203 3211 
Q 3513 2838 3513 2113 
z
" transform="scale(0.015625)"/>
     </defs>
     <use xlink:href="#DejaVuSans-43"/>
     <use xlink:href="#DejaVuSans-61" x="69.824219"/>
     <use xlink:href="#DejaVuSans-6c" x="131.103516"/>
     <use xlink:href="#DejaVuSans-74" x="158.886719"/>
     <use xlink:href="#DejaVuSans-65" x="198.095703"/>
     <use xlink:href="#DejaVuSans-63" x="259.619141"/>
     <use xlink:href="#DejaVuSans-68" x="314.599609"/>
     <use xlink:href="#DejaVuSans-2d" x="377.978516"/>
     <use xlink:href="#DejaVuSans-31" x="414.0625"/>
     <use xlink:href="#DejaVuSans-30" x="477.685547"/>
     <use xlink:href="#DejaVuSans-31" x="541.308594"/>
    </g>
    <!-- Probe -->
    <g transform="translate(316.793964 40.766613) rotate(-348.75) scale(0.14 -0.14)">
     <use xlink:href="#DejaVuSans-50"/>
     <use xlink:href="#DejaVuSans-72" x="58.552734"/>
     <use xlink:href="#DejaVuSans-6f" x="97.416016"/>
     <use xlink:href="#DejaVuSans-62" x="158.597656"/>
     <use xlink:href="#DejaVuSans-65" x="222.074219"/>
    </g>
   </g>
   <g id="text_5">
    <!-- iNat18 -->
    <g transform="translate(213.392001 33.775032) rotate(-11.25) scale(0.14 -0.14)">
     <defs>
      <path id="DejaVuSans-69" d="M 603 3500 
L 1178 3500 
L 1178 0 
L 603 0 
L 603 3500 
z
M 603 4863 
L 1178 4863 
L 1178 4134 
L 603 4134 
L 603 4863 
z
" transform="scale(0.015625)"/>
      <path id="DejaVuSans-4e" d="M 628 4666 
L 1478 4666 
L 3547 763 
L 3547 4666 
L 4159 4666 
L 4159 0 
L 3309 0 
L 1241 3903 
L 1241 0 
L 628 0 
L 628 4666 
z
" transform="scale(0.015625)"/>
      <path id="DejaVuSans-38" d="M 2034 2216 
Q 1584 2216 1326 1975 
Q 1069 1734 1069 1313 
Q 1069 891 1326 650 
Q 1584 409 2034 409 
Q 2484 409 2743 651 
Q 3003 894 3003 1313 
Q 3003 1734 2745 1975 
Q 2488 2216 2034 2216 
z
M 1403 2484 
Q 997 2584 770 2862 
Q 544 3141 544 3541 
Q 544 4100 942 4425 
Q 1341 4750 2034 4750 
Q 2731 4750 3128 4425 
Q 3525 4100 3525 3541 
Q 3525 3141 3298 2862 
Q 3072 2584 2669 2484 
Q 3125 2378 3379 2068 
Q 3634 1759 3634 1313 
Q 3634 634 3220 271 
Q 2806 -91 2034 -91 
Q 1263 -91 848 271 
Q 434 634 434 1313 
Q 434 1759 690 2068 
Q 947 2378 1403 2484 
z
M 1172 3481 
Q 1172 3119 1398 2916 
Q 1625 2713 2034 2713 
Q 2441 2713 2670 2916 
Q 2900 3119 2900 3481 
Q 2900 3844 2670 4047 
Q 2441 4250 2034 4250 
Q 1625 4250 1398 4047 
Q 1172 3844 1172 3481 
z
" transform="scale(0.015625)"/>
     </defs>
     <use xlink:href="#DejaVuSans-69"/>
     <use xlink:href="#DejaVuSans-4e" x="27.783203"/>
     <use xlink:href="#DejaVuSans-61" x="102.587891"/>
     <use xlink:href="#DejaVuSans-74" x="163.867188"/>
     <use xlink:href="#DejaVuSans-31" x="203.076172"/>
     <use xlink:href="#DejaVuSans-38" x="266.699219"/>
    </g>
    <!-- 5-shot -->
    <g transform="translate(217.464154 48.949097) rotate(-11.25) scale(0.14 -0.14)">
     <defs>
      <path id="DejaVuSans-35" d="M 691 4666 
L 3169 4666 
L 3169 4134 
L 1269 4134 
L 1269 2991 
Q 1406 3038 1543 3061 
Q 1681 3084 1819 3084 
Q 2600 3084 3056 2656 
Q 3513 2228 3513 1497 
Q 3513 744 3044 326 
Q 2575 -91 1722 -91 
Q 1428 -91 1123 -41 
Q 819 9 494 109 
L 494 744 
Q 775 591 1075 516 
Q 1375 441 1709 441 
Q 2250 441 2565 725 
Q 2881 1009 2881 1497 
Q 2881 1984 2565 2268 
Q 2250 2553 1709 2553 
Q 1456 2553 1204 2497 
Q 953 2441 691 2322 
L 691 4666 
z
" transform="scale(0.015625)"/>
     </defs>
     <use xlink:href="#DejaVuSans-35"/>
     <use xlink:href="#DejaVuSans-2d" x="63.623047"/>
     <use xlink:href="#DejaVuSans-73" x="99.707031"/>
     <use xlink:href="#DejaVuSans-68" x="151.806641"/>
     <use xlink:href="#DejaVuSans-6f" x="215.185547"/>
     <use xlink:href="#DejaVuSans-74" x="276.367188"/>
    </g>
   </g>
   <g id="text_6">
    <!-- iNat18 -->
    <g transform="translate(121.451375 81.623575) rotate(-33.75) scale(0.14 -0.14)">
     <use xlink:href="#DejaVuSans-69"/>
     <use xlink:href="#DejaVuSans-4e" x="27.783203"/>
     <use xlink:href="#DejaVuSans-61" x="102.587891"/>
     <use xlink:href="#DejaVuSans-74" x="163.867188"/>
     <use xlink:href="#DejaVuSans-31" x="203.076172"/>
     <use xlink:href="#DejaVuSans-38" x="266.699219"/>
    </g>
    <!-- 10-shot -->
    <g transform="translate(127.317259 96.558609) rotate(-33.75) scale(0.14 -0.14)">
     <use xlink:href="#DejaVuSans-31"/>
     <use xlink:href="#DejaVuSans-30" x="63.623047"/>
     <use xlink:href="#DejaVuSans-2d" x="127.246094"/>
     <use xlink:href="#DejaVuSans-73" x="163.330078"/>
     <use xlink:href="#DejaVuSans-68" x="215.429688"/>
     <use xlink:href="#DejaVuSans-6f" x="278.808594"/>
     <use xlink:href="#DejaVuSans-74" x="339.990234"/>
    </g>
   </g>
   <g id="text_7">
    <!-- iNat18 -->
    <g transform="translate(54.820157 161.014018) rotate(-56.25) scale(0.14 -0.14)">
     <use xlink:href="#DejaVuSans-69"/>
     <use xlink:href="#DejaVuSans-4e" x="27.783203"/>
     <use xlink:href="#DejaVuSans-61" x="102.587891"/>
     <use xlink:href="#DejaVuSans-74" x="163.867188"/>
     <use xlink:href="#DejaVuSans-31" x="203.076172"/>
     <use xlink:href="#DejaVuSans-38" x="266.699219"/>
    </g>
    <!-- Fine-tune -->
    <g transform="translate(62.558733 177.650162) rotate(-56.25) scale(0.14 -0.14)">
     <use xlink:href="#DejaVuSans-46"/>
     <use xlink:href="#DejaVuSans-69" x="50.269531"/>
     <use xlink:href="#DejaVuSans-6e" x="78.052734"/>
     <use xlink:href="#DejaVuSans-65" x="141.431641"/>
     <use xlink:href="#DejaVuSans-2d" x="202.955078"/>
     <use xlink:href="#DejaVuSans-74" x="239.039062"/>
     <use xlink:href="#DejaVuSans-75" x="278.248047"/>
     <use xlink:href="#DejaVuSans-6e" x="341.626953"/>
     <use xlink:href="#DejaVuSans-65" x="405.005859"/>
    </g>
   </g>
   <g id="text_8">
    <!-- VTAB-1K -->
    <g transform="translate(22.362705 266.293073) rotate(-78.75) scale(0.14 -0.14)">
     <defs>
      <path id="DejaVuSans-56" d="M 1831 0 
L 50 4666 
L 709 4666 
L 2188 738 
L 3669 4666 
L 4325 4666 
L 2547 0 
L 1831 0 
z
" transform="scale(0.015625)"/>
      <path id="DejaVuSans-54" d="M -19 4666 
L 3928 4666 
L 3928 4134 
L 2272 4134 
L 2272 0 
L 1638 0 
L 1638 4134 
L -19 4134 
L -19 4666 
z
" transform="scale(0.015625)"/>
      <path id="DejaVuSans-42" d="M 1259 2228 
L 1259 519 
L 2272 519 
Q 2781 519 3026 730 
Q 3272 941 3272 1375 
Q 3272 1813 3026 2020 
Q 2781 2228 2272 2228 
L 1259 2228 
z
M 1259 4147 
L 1259 2741 
L 2194 2741 
Q 2656 2741 2882 2914 
Q 3109 3088 3109 3444 
Q 3109 3797 2882 3972 
Q 2656 4147 2194 4147 
L 1259 4147 
z
M 628 4666 
L 2241 4666 
Q 2963 4666 3353 4366 
Q 3744 4066 3744 3513 
Q 3744 3084 3544 2831 
Q 3344 2578 2956 2516 
Q 3422 2416 3680 2098 
Q 3938 1781 3938 1306 
Q 3938 681 3513 340 
Q 3088 0 2303 0 
L 628 0 
L 628 4666 
z
" transform="scale(0.015625)"/>
      <path id="DejaVuSans-4b" d="M 628 4666 
L 1259 4666 
L 1259 2694 
L 3353 4666 
L 4166 4666 
L 1850 2491 
L 4331 0 
L 3500 0 
L 1259 2247 
L 1259 0 
L 628 0 
L 628 4666 
z
" transform="scale(0.015625)"/>
     </defs>
     <use xlink:href="#DejaVuSans-56"/>
     <use xlink:href="#DejaVuSans-54" x="68.408203"/>
     <use xlink:href="#DejaVuSans-41" x="121.742188"/>
     <use xlink:href="#DejaVuSans-42" x="190.150391"/>
     <use xlink:href="#DejaVuSans-2d" x="258.753906"/>
     <use xlink:href="#DejaVuSans-31" x="294.837891"/>
     <use xlink:href="#DejaVuSans-4b" x="358.460938"/>
    </g>
    <!-- Fine-tune -->
    <g transform="translate(37.158235 272.268255) rotate(-78.75) scale(0.14 -0.14)">
     <use xlink:href="#DejaVuSans-46"/>
     <use xlink:href="#DejaVuSans-69" x="50.269531"/>
     <use xlink:href="#DejaVuSans-6e" x="78.052734"/>
     <use xlink:href="#DejaVuSans-65" x="141.431641"/>
     <use xlink:href="#DejaVuSans-2d" x="202.955078"/>
     <use xlink:href="#DejaVuSans-74" x="239.039062"/>
     <use xlink:href="#DejaVuSans-75" x="278.248047"/>
     <use xlink:href="#DejaVuSans-6e" x="341.626953"/>
     <use xlink:href="#DejaVuSans-65" x="405.005859"/>
    </g>
   </g>
   <g id="text_9">
    <!-- ADE20K -->
    <g transform="translate(30.469384 311.323419) rotate(-281.25) scale(0.14 -0.14)">
     <defs>
      <path id="DejaVuSans-44" d="M 1259 4147 
L 1259 519 
L 2022 519 
Q 2988 519 3436 956 
Q 3884 1394 3884 2338 
Q 3884 3275 3436 3711 
Q 2988 4147 2022 4147 
L 1259 4147 
z
M 628 4666 
L 1925 4666 
Q 3281 4666 3915 4102 
Q 4550 3538 4550 2338 
Q 4550 1131 3912 565 
Q 3275 0 1925 0 
L 628 0 
L 628 4666 
z
" transform="scale(0.015625)"/>
      <path id="DejaVuSans-45" d="M 628 4666 
L 3578 4666 
L 3578 4134 
L 1259 4134 
L 1259 2753 
L 3481 2753 
L 3481 2222 
L 1259 2222 
L 1259 531 
L 3634 531 
L 3634 0 
L 628 0 
L 628 4666 
z
" transform="scale(0.015625)"/>
      <path id="DejaVuSans-32" d="M 1228 531 
L 3431 531 
L 3431 0 
L 469 0 
L 469 531 
Q 828 903 1448 1529 
Q 2069 2156 2228 2338 
Q 2531 2678 2651 2914 
Q 2772 3150 2772 3378 
Q 2772 3750 2511 3984 
Q 2250 4219 1831 4219 
Q 1534 4219 1204 4116 
Q 875 4013 500 3803 
L 500 4441 
Q 881 4594 1212 4672 
Q 1544 4750 1819 4750 
Q 2544 4750 2975 4387 
Q 3406 4025 3406 3419 
Q 3406 3131 3298 2873 
Q 3191 2616 2906 2266 
Q 2828 2175 2409 1742 
Q 1991 1309 1228 531 
z
" transform="scale(0.015625)"/>
     </defs>
     <use xlink:href="#DejaVuSans-41"/>
     <use xlink:href="#DejaVuSans-44" x="68.408203"/>
     <use xlink:href="#DejaVuSans-45" x="145.410156"/>
     <use xlink:href="#DejaVuSans-32" x="208.59375"/>
     <use xlink:href="#DejaVuSans-30" x="272.216797"/>
     <use xlink:href="#DejaVuSans-4b" x="335.839844"/>
    </g>
    <!-- Fine-tune -->
    <g transform="translate(14.204733 309.912828) rotate(-281.25) scale(0.14 -0.14)">
     <use xlink:href="#DejaVuSans-46"/>
     <use xlink:href="#DejaVuSans-69" x="50.269531"/>
     <use xlink:href="#DejaVuSans-6e" x="78.052734"/>
     <use xlink:href="#DejaVuSans-65" x="141.431641"/>
     <use xlink:href="#DejaVuSans-2d" x="202.955078"/>
     <use xlink:href="#DejaVuSans-74" x="239.039062"/>
     <use xlink:href="#DejaVuSans-75" x="278.248047"/>
     <use xlink:href="#DejaVuSans-6e" x="341.626953"/>
     <use xlink:href="#DejaVuSans-65" x="405.005859"/>
    </g>
   </g>
   <g id="text_10">
    <!-- ADE20K -->
    <g transform="translate(58.666082 408.046304) rotate(-303.75) scale(0.14 -0.14)">
     <use xlink:href="#DejaVuSans-41"/>
     <use xlink:href="#DejaVuSans-44" x="68.408203"/>
     <use xlink:href="#DejaVuSans-45" x="145.410156"/>
     <use xlink:href="#DejaVuSans-32" x="208.59375"/>
     <use xlink:href="#DejaVuSans-30" x="272.216797"/>
     <use xlink:href="#DejaVuSans-4b" x="335.839844"/>
    </g>
    <!-- Probe -->
    <g transform="translate(50.212903 423.612969) rotate(-303.75) scale(0.14 -0.14)">
     <use xlink:href="#DejaVuSans-50"/>
     <use xlink:href="#DejaVuSans-72" x="58.552734"/>
     <use xlink:href="#DejaVuSans-6f" x="97.416016"/>
     <use xlink:href="#DejaVuSans-62" x="158.597656"/>
     <use xlink:href="#DejaVuSans-65" x="222.074219"/>
    </g>
   </g>
   <g id="text_11">
    <!-- ImageNet -->
    <g transform="translate(116.647932 483.220005) rotate(-326.25) scale(0.14 -0.14)">
     <defs>
      <path id="DejaVuSans-6d" d="M 3328 2828 
Q 3544 3216 3844 3400 
Q 4144 3584 4550 3584 
Q 5097 3584 5394 3201 
Q 5691 2819 5691 2113 
L 5691 0 
L 5113 0 
L 5113 2094 
Q 5113 2597 4934 2840 
Q 4756 3084 4391 3084 
Q 3944 3084 3684 2787 
Q 3425 2491 3425 1978 
L 3425 0 
L 2847 0 
L 2847 2094 
Q 2847 2600 2669 2842 
Q 2491 3084 2119 3084 
Q 1678 3084 1418 2786 
Q 1159 2488 1159 1978 
L 1159 0 
L 581 0 
L 581 3500 
L 1159 3500 
L 1159 2956 
Q 1356 3278 1631 3431 
Q 1906 3584 2284 3584 
Q 2666 3584 2933 3390 
Q 3200 3197 3328 2828 
z
" transform="scale(0.015625)"/>
      <path id="DejaVuSans-67" d="M 2906 1791 
Q 2906 2416 2648 2759 
Q 2391 3103 1925 3103 
Q 1463 3103 1205 2759 
Q 947 2416 947 1791 
Q 947 1169 1205 825 
Q 1463 481 1925 481 
Q 2391 481 2648 825 
Q 2906 1169 2906 1791 
z
M 3481 434 
Q 3481 -459 3084 -895 
Q 2688 -1331 1869 -1331 
Q 1566 -1331 1297 -1286 
Q 1028 -1241 775 -1147 
L 775 -588 
Q 1028 -725 1275 -790 
Q 1522 -856 1778 -856 
Q 2344 -856 2625 -561 
Q 2906 -266 2906 331 
L 2906 616 
Q 2728 306 2450 153 
Q 2172 0 1784 0 
Q 1141 0 747 490 
Q 353 981 353 1791 
Q 353 2603 747 3093 
Q 1141 3584 1784 3584 
Q 2172 3584 2450 3431 
Q 2728 3278 2906 2969 
L 2906 3500 
L 3481 3500 
L 3481 434 
z
" transform="scale(0.015625)"/>
     </defs>
     <use xlink:href="#DejaVuSans-49"/>
     <use xlink:href="#DejaVuSans-6d" x="29.492188"/>
     <use xlink:href="#DejaVuSans-61" x="126.904297"/>
     <use xlink:href="#DejaVuSans-67" x="188.183594"/>
     <use xlink:href="#DejaVuSans-65" x="251.660156"/>
     <use xlink:href="#DejaVuSans-4e" x="313.183594"/>
     <use xlink:href="#DejaVuSans-65" x="387.988281"/>
     <use xlink:href="#DejaVuSans-74" x="449.511719"/>
    </g>
    <!-- Robustness  -->
    <g transform="translate(101.160386 491.72605) rotate(-326.25) scale(0.14 -0.14)">
     <defs>
      <path id="DejaVuSans-20" transform="scale(0.015625)"/>
     </defs>
     <use xlink:href="#DejaVuSans-52"/>
     <use xlink:href="#DejaVuSans-6f" x="64.982422"/>
     <use xlink:href="#DejaVuSans-62" x="126.164062"/>
     <use xlink:href="#DejaVuSans-75" x="189.640625"/>
     <use xlink:href="#DejaVuSans-73" x="253.019531"/>
     <use xlink:href="#DejaVuSans-74" x="305.119141"/>
     <use xlink:href="#DejaVuSans-6e" x="344.328125"/>
     <use xlink:href="#DejaVuSans-65" x="407.707031"/>
     <use xlink:href="#DejaVuSans-73" x="469.230469"/>
     <use xlink:href="#DejaVuSans-73" x="521.330078"/>
     <use xlink:href="#DejaVuSans-20" x="573.429688"/>
    </g>
   </g>
   <g id="text_12">
    <!-- ImageNet -->
    <g transform="translate(204.066654 533.878938) rotate(-348.75) scale(0.14 -0.14)">
     <use xlink:href="#DejaVuSans-49"/>
     <use xlink:href="#DejaVuSans-6d" x="29.492188"/>
     <use xlink:href="#DejaVuSans-61" x="126.904297"/>
     <use xlink:href="#DejaVuSans-67" x="188.183594"/>
     <use xlink:href="#DejaVuSans-65" x="251.660156"/>
     <use xlink:href="#DejaVuSans-4e" x="313.183594"/>
     <use xlink:href="#DejaVuSans-65" x="387.988281"/>
     <use xlink:href="#DejaVuSans-74" x="449.511719"/>
    </g>
    <!-- Fine-tune -->
    <g transform="translate(202.534736 549.558288) rotate(-348.75) scale(0.14 -0.14)">
     <use xlink:href="#DejaVuSans-46"/>
     <use xlink:href="#DejaVuSans-69" x="50.269531"/>
     <use xlink:href="#DejaVuSans-6e" x="78.052734"/>
     <use xlink:href="#DejaVuSans-65" x="141.431641"/>
     <use xlink:href="#DejaVuSans-2d" x="202.955078"/>
     <use xlink:href="#DejaVuSans-74" x="239.039062"/>
     <use xlink:href="#DejaVuSans-75" x="278.248047"/>
     <use xlink:href="#DejaVuSans-6e" x="341.626953"/>
     <use xlink:href="#DejaVuSans-65" x="405.005859"/>
    </g>
   </g>
   <g id="text_13">
    <!-- ImageNet -->
    <g transform="translate(304.217357 547.227994) rotate(-11.25) scale(0.14 -0.14)">
     <use xlink:href="#DejaVuSans-49"/>
     <use xlink:href="#DejaVuSans-6d" x="29.492188"/>
     <use xlink:href="#DejaVuSans-61" x="126.904297"/>
     <use xlink:href="#DejaVuSans-67" x="188.183594"/>
     <use xlink:href="#DejaVuSans-65" x="251.660156"/>
     <use xlink:href="#DejaVuSans-4e" x="313.183594"/>
     <use xlink:href="#DejaVuSans-65" x="387.988281"/>
     <use xlink:href="#DejaVuSans-74" x="449.511719"/>
    </g>
    <!-- Probe -->
    <g transform="translate(321.3597 559.802237) rotate(-11.25) scale(0.14 -0.14)">
     <use xlink:href="#DejaVuSans-50"/>
     <use xlink:href="#DejaVuSans-72" x="58.552734"/>
     <use xlink:href="#DejaVuSans-6f" x="97.416016"/>
     <use xlink:href="#DejaVuSans-62" x="158.597656"/>
     <use xlink:href="#DejaVuSans-65" x="222.074219"/>
    </g>
   </g>
   <g id="text_14">
    <!-- ImageNet -->
    <g transform="translate(401.853004 521.234898) rotate(-33.75) scale(0.14 -0.14)">
     <use xlink:href="#DejaVuSans-49"/>
     <use xlink:href="#DejaVuSans-6d" x="29.492188"/>
     <use xlink:href="#DejaVuSans-61" x="126.904297"/>
     <use xlink:href="#DejaVuSans-67" x="188.183594"/>
     <use xlink:href="#DejaVuSans-65" x="251.660156"/>
     <use xlink:href="#DejaVuSans-4e" x="313.183594"/>
     <use xlink:href="#DejaVuSans-65" x="387.988281"/>
     <use xlink:href="#DejaVuSans-74" x="449.511719"/>
    </g>
    <!-- $k$-NN -->
    <g transform="translate(424.807797 524.751488) rotate(-33.75) scale(0.14 -0.14)">
     <defs>
      <path id="DejaVuSans-Oblique-6b" d="M 1172 4863 
L 1747 4863 
L 1197 2028 
L 3169 3500 
L 3916 3500 
L 1716 1825 
L 3322 0 
L 2625 0 
L 1131 1709 
L 800 0 
L 225 0 
L 1172 4863 
z
" transform="scale(0.015625)"/>
     </defs>
     <use xlink:href="#DejaVuSans-Oblique-6b" transform="translate(0 0.015625)"/>
     <use xlink:href="#DejaVuSans-2d" transform="translate(57.910156 0.015625)"/>
     <use xlink:href="#DejaVuSans-4e" transform="translate(93.994141 0.015625)"/>
     <use xlink:href="#DejaVuSans-4e" transform="translate(168.798828 0.015625)"/>
    </g>
   </g>
   <g id="text_15">
    <!-- ImageNet -->
    <g transform="translate(482.109453 459.856864) rotate(-56.25) scale(0.14 -0.14)">
     <use xlink:href="#DejaVuSans-49"/>
     <use xlink:href="#DejaVuSans-6d" x="29.492188"/>
     <use xlink:href="#DejaVuSans-61" x="126.904297"/>
     <use xlink:href="#DejaVuSans-67" x="188.183594"/>
     <use xlink:href="#DejaVuSans-65" x="251.660156"/>
     <use xlink:href="#DejaVuSans-4e" x="313.183594"/>
     <use xlink:href="#DejaVuSans-65" x="387.988281"/>
     <use xlink:href="#DejaVuSans-74" x="449.511719"/>
    </g>
    <!-- 1-shot -->
    <g transform="translate(501.879598 458.486494) rotate(-56.25) scale(0.14 -0.14)">
     <use xlink:href="#DejaVuSans-31"/>
     <use xlink:href="#DejaVuSans-2d" x="63.623047"/>
     <use xlink:href="#DejaVuSans-73" x="99.707031"/>
     <use xlink:href="#DejaVuSans-68" x="151.806641"/>
     <use xlink:href="#DejaVuSans-6f" x="215.185547"/>
     <use xlink:href="#DejaVuSans-74" x="276.367188"/>
    </g>
   </g>
   <g id="text_16">
    <!-- ImageNet -->
    <g transform="translate(532.768387 372.438142) rotate(-78.75) scale(0.14 -0.14)">
     <use xlink:href="#DejaVuSans-49"/>
     <use xlink:href="#DejaVuSans-6d" x="29.492188"/>
     <use xlink:href="#DejaVuSans-61" x="126.904297"/>
     <use xlink:href="#DejaVuSans-67" x="188.183594"/>
     <use xlink:href="#DejaVuSans-65" x="251.660156"/>
     <use xlink:href="#DejaVuSans-4e" x="313.183594"/>
     <use xlink:href="#DejaVuSans-65" x="387.988281"/>
     <use xlink:href="#DejaVuSans-74" x="449.511719"/>
    </g>
    <!-- Clustering -->
    <g transform="translate(547.859874 376.925442) rotate(-78.75) scale(0.14 -0.14)">
     <use xlink:href="#DejaVuSans-43"/>
     <use xlink:href="#DejaVuSans-6c" x="69.824219"/>
     <use xlink:href="#DejaVuSans-75" x="97.607422"/>
     <use xlink:href="#DejaVuSans-73" x="160.986328"/>
     <use xlink:href="#DejaVuSans-74" x="213.085938"/>
     <use xlink:href="#DejaVuSans-65" x="252.294922"/>
     <use xlink:href="#DejaVuSans-72" x="313.818359"/>
     <use xlink:href="#DejaVuSans-69" x="354.931641"/>
     <use xlink:href="#DejaVuSans-6e" x="382.714844"/>
     <use xlink:href="#DejaVuSans-67" x="446.09375"/>
    </g>
   </g>
   <g id="text_17">
    <!-- 89.6 -->
    <g transform="translate(344.358653 280.913116) rotate(-11.25) scale(0.12 -0.12)">
     <defs>
      <path id="DejaVuSans-2e" d="M 684 794 
L 1344 794 
L 1344 0 
L 684 0 
L 684 794 
z
" transform="scale(0.015625)"/>
      <path id="DejaVuSans-36" d="M 2113 2584 
Q 1688 2584 1439 2293 
Q 1191 2003 1191 1497 
Q 1191 994 1439 701 
Q 1688 409 2113 409 
Q 2538 409 2786 701 
Q 3034 994 3034 1497 
Q 3034 2003 2786 2293 
Q 2538 2584 2113 2584 
z
M 3366 4563 
L 3366 3988 
Q 3128 4100 2886 4159 
Q 2644 4219 2406 4219 
Q 1781 4219 1451 3797 
Q 1122 3375 1075 2522 
Q 1259 2794 1537 2939 
Q 1816 3084 2150 3084 
Q 2853 3084 3261 2657 
Q 3669 2231 3669 1497 
Q 3669 778 3244 343 
Q 2819 -91 2113 -91 
Q 1303 -91 875 529 
Q 447 1150 447 2328 
Q 447 3434 972 4092 
Q 1497 4750 2381 4750 
Q 2619 4750 2861 4703 
Q 3103 4656 3366 4563 
z
" transform="scale(0.015625)"/>
     </defs>
     <use xlink:href="#DejaVuSans-38"/>
     <use xlink:href="#DejaVuSans-39" x="63.623047"/>
     <use xlink:href="#DejaVuSans-2e" x="127.246094"/>
     <use xlink:href="#DejaVuSans-36" x="159.033203"/>
    </g>
   </g>
   <g id="text_18">
    <!-- 85.0 -->
    <g transform="translate(337.024434 259.830624) rotate(-33.75) scale(0.12 -0.12)">
     <use xlink:href="#DejaVuSans-38"/>
     <use xlink:href="#DejaVuSans-35" x="63.623047"/>
     <use xlink:href="#DejaVuSans-2e" x="127.246094"/>
     <use xlink:href="#DejaVuSans-30" x="159.033203"/>
    </g>
   </g>
   <g id="text_19">
    <!-- 75.1 -->
    <g transform="translate(322.180579 243.159626) rotate(-56.25) scale(0.12 -0.12)">
     <use xlink:href="#DejaVuSans-37"/>
     <use xlink:href="#DejaVuSans-35" x="63.623047"/>
     <use xlink:href="#DejaVuSans-2e" x="127.246094"/>
     <use xlink:href="#DejaVuSans-31" x="159.033203"/>
    </g>
   </g>
   <g id="text_20">
    <!-- 91.3 -->
    <g transform="translate(302.086931 233.438129) rotate(-78.75) scale(0.12 -0.12)">
     <use xlink:href="#DejaVuSans-39"/>
     <use xlink:href="#DejaVuSans-31" x="63.623047"/>
     <use xlink:href="#DejaVuSans-2e" x="127.246094"/>
     <use xlink:href="#DejaVuSans-33" x="159.033203"/>
    </g>
   </g>
   <g id="text_21">
    <!-- 53.1 -->
    <g transform="translate(268.094744 207.232772) rotate(-281.25) scale(0.12 -0.12)">
     <use xlink:href="#DejaVuSans-35"/>
     <use xlink:href="#DejaVuSans-33" x="63.623047"/>
     <use xlink:href="#DejaVuSans-2e" x="127.246094"/>
     <use xlink:href="#DejaVuSans-31" x="159.033203"/>
    </g>
   </g>
   <g id="text_22">
    <!-- 66.9 -->
    <g transform="translate(238.369523 220.943797) rotate(-303.75) scale(0.12 -0.12)">
     <use xlink:href="#DejaVuSans-36"/>
     <use xlink:href="#DejaVuSans-36" x="63.623047"/>
     <use xlink:href="#DejaVuSans-2e" x="127.246094"/>
     <use xlink:href="#DejaVuSans-39" x="159.033203"/>
    </g>
   </g>
   <g id="text_23">
    <!-- 76.9 -->
    <g transform="translate(216.153982 244.986482) rotate(-326.25) scale(0.12 -0.12)">
     <use xlink:href="#DejaVuSans-37"/>
     <use xlink:href="#DejaVuSans-36" x="63.623047"/>
     <use xlink:href="#DejaVuSans-2e" x="127.246094"/>
     <use xlink:href="#DejaVuSans-39" x="159.033203"/>
    </g>
   </g>
   <g id="text_24">
    <!-- 68.0 -->
    <g transform="translate(204.830235 275.700546) rotate(-348.75) scale(0.12 -0.12)">
     <use xlink:href="#DejaVuSans-36"/>
     <use xlink:href="#DejaVuSans-38" x="63.623047"/>
     <use xlink:href="#DejaVuSans-2e" x="127.246094"/>
     <use xlink:href="#DejaVuSans-30" x="159.033203"/>
    </g>
   </g>
   <g id="text_25">
    <!-- 50.2 -->
    <g transform="translate(206.122221 308.410052) rotate(-11.25) scale(0.12 -0.12)">
     <use xlink:href="#DejaVuSans-35"/>
     <use xlink:href="#DejaVuSans-30" x="63.623047"/>
     <use xlink:href="#DejaVuSans-2e" x="127.246094"/>
     <use xlink:href="#DejaVuSans-32" x="159.033203"/>
    </g>
   </g>
   <g id="text_26">
    <!-- 35.6 -->
    <g transform="translate(219.833245 338.135273) rotate(-33.75) scale(0.12 -0.12)">
     <use xlink:href="#DejaVuSans-33"/>
     <use xlink:href="#DejaVuSans-35" x="63.623047"/>
     <use xlink:href="#DejaVuSans-2e" x="127.246094"/>
     <use xlink:href="#DejaVuSans-36" x="159.033203"/>
    </g>
   </g>
   <g id="text_27">
    <!-- 47.7 -->
    <g transform="translate(243.875931 360.350815) rotate(-56.25) scale(0.12 -0.12)">
     <defs>
      <path id="DejaVuSans-34" d="M 2419 4116 
L 825 1625 
L 2419 1625 
L 2419 4116 
z
M 2253 4666 
L 3047 4666 
L 3047 1625 
L 3713 1625 
L 3713 1100 
L 3047 1100 
L 3047 0 
L 2419 0 
L 2419 1100 
L 313 1100 
L 313 1709 
L 2253 4666 
z
" transform="scale(0.015625)"/>
     </defs>
     <use xlink:href="#DejaVuSans-34"/>
     <use xlink:href="#DejaVuSans-37" x="63.623047"/>
     <use xlink:href="#DejaVuSans-2e" x="127.246094"/>
     <use xlink:href="#DejaVuSans-37" x="159.033203"/>
    </g>
   </g>
   <g id="text_28">
    <!-- 84.6 -->
    <g transform="translate(274.589995 371.674561) rotate(-78.75) scale(0.12 -0.12)">
     <use xlink:href="#DejaVuSans-38"/>
     <use xlink:href="#DejaVuSans-34" x="63.623047"/>
     <use xlink:href="#DejaVuSans-2e" x="127.246094"/>
     <use xlink:href="#DejaVuSans-36" x="159.033203"/>
    </g>
   </g>
   <g id="text_29">
    <!-- 78.2 -->
    <g transform="translate(295.59168 345.469205) rotate(-281.25) scale(0.12 -0.12)">
     <use xlink:href="#DejaVuSans-37"/>
     <use xlink:href="#DejaVuSans-38" x="63.623047"/>
     <use xlink:href="#DejaVuSans-2e" x="127.246094"/>
     <use xlink:href="#DejaVuSans-32" x="159.033203"/>
    </g>
   </g>
   <g id="text_30">
    <!-- 61.3 -->
    <g transform="translate(316.674172 338.134986) rotate(-303.75) scale(0.12 -0.12)">
     <use xlink:href="#DejaVuSans-36"/>
     <use xlink:href="#DejaVuSans-31" x="63.623047"/>
     <use xlink:href="#DejaVuSans-2e" x="127.246094"/>
     <use xlink:href="#DejaVuSans-33" x="159.033203"/>
    </g>
   </g>
   <g id="text_31">
    <!-- 28.0 -->
    <g transform="translate(333.34517 323.291131) rotate(-326.25) scale(0.12 -0.12)">
     <use xlink:href="#DejaVuSans-32"/>
     <use xlink:href="#DejaVuSans-38" x="63.623047"/>
     <use xlink:href="#DejaVuSans-2e" x="127.246094"/>
     <use xlink:href="#DejaVuSans-30" x="159.033203"/>
    </g>
   </g>
   <g id="text_32">
    <!-- 18.5 -->
    <g transform="translate(343.066667 303.197482) rotate(-348.75) scale(0.12 -0.12)">
     <use xlink:href="#DejaVuSans-31"/>
     <use xlink:href="#DejaVuSans-38" x="63.623047"/>
     <use xlink:href="#DejaVuSans-2e" x="127.246094"/>
     <use xlink:href="#DejaVuSans-35" x="159.033203"/>
    </g>
   </g>
   <g id="text_33">
    <!-- 95.8 -->
    <g transform="translate(492.038674 252.10042) rotate(-11.25) scale(0.14 -0.14)">
     <use xlink:href="#DejaVuSans-39"/>
     <use xlink:href="#DejaVuSans-35" x="63.623047"/>
     <use xlink:href="#DejaVuSans-2e" x="127.246094"/>
     <use xlink:href="#DejaVuSans-38" x="159.033203"/>
    </g>
   </g>
   <g id="text_34">
    <!-- 90.4 -->
    <g transform="translate(462.436842 176.696467) rotate(-33.75) scale(0.14 -0.14)">
     <use xlink:href="#DejaVuSans-39"/>
     <use xlink:href="#DejaVuSans-30" x="63.623047"/>
     <use xlink:href="#DejaVuSans-2e" x="127.246094"/>
     <use xlink:href="#DejaVuSans-34" x="159.033203"/>
    </g>
   </g>
   <g id="text_35">
    <!-- 79.2 -->
    <g transform="translate(406.232471 118.360429) rotate(-56.25) scale(0.14 -0.14)">
     <use xlink:href="#DejaVuSans-37"/>
     <use xlink:href="#DejaVuSans-39" x="63.623047"/>
     <use xlink:href="#DejaVuSans-2e" x="127.246094"/>
     <use xlink:href="#DejaVuSans-32" x="159.033203"/>
    </g>
   </g>
   <g id="text_36">
    <!-- 93.5 -->
    <g transform="translate(331.982168 85.973439) rotate(-78.75) scale(0.14 -0.14)">
     <use xlink:href="#DejaVuSans-39"/>
     <use xlink:href="#DejaVuSans-33" x="63.623047"/>
     <use xlink:href="#DejaVuSans-2e" x="127.246094"/>
     <use xlink:href="#DejaVuSans-35" x="159.033203"/>
    </g>
   </g>
   <g id="text_37">
    <!-- 58.8 -->
    <g transform="translate(237.330745 55.400523) rotate(-281.25) scale(0.14 -0.14)">
     <use xlink:href="#DejaVuSans-35"/>
     <use xlink:href="#DejaVuSans-38" x="63.623047"/>
     <use xlink:href="#DejaVuSans-2e" x="127.246094"/>
     <use xlink:href="#DejaVuSans-38" x="159.033203"/>
    </g>
   </g>
   <g id="text_38">
    <!-- 73.0 -->
    <g transform="translate(151.843608 92.441962) rotate(-303.75) scale(0.14 -0.14)">
     <use xlink:href="#DejaVuSans-37"/>
     <use xlink:href="#DejaVuSans-33" x="63.623047"/>
     <use xlink:href="#DejaVuSans-2e" x="127.246094"/>
     <use xlink:href="#DejaVuSans-30" x="159.033203"/>
    </g>
   </g>
   <g id="text_39">
    <!-- 82.1 -->
    <g transform="translate(87.038936 159.378301) rotate(-326.25) scale(0.14 -0.14)">
     <use xlink:href="#DejaVuSans-38"/>
     <use xlink:href="#DejaVuSans-32" x="63.623047"/>
     <use xlink:href="#DejaVuSans-2e" x="127.246094"/>
     <use xlink:href="#DejaVuSans-31" x="159.033203"/>
    </g>
   </g>
   <g id="text_40">
    <!-- 75.2 -->
    <g transform="translate(52.782654 246.019089) rotate(-348.75) scale(0.14 -0.14)">
     <use xlink:href="#DejaVuSans-37"/>
     <use xlink:href="#DejaVuSans-35" x="63.623047"/>
     <use xlink:href="#DejaVuSans-2e" x="127.246094"/>
     <use xlink:href="#DejaVuSans-32" x="159.033203"/>
    </g>
   </g>
   <g id="text_41">
    <!-- 54.4 -->
    <g transform="translate(54.289971 339.174051) rotate(-11.25) scale(0.14 -0.14)">
     <use xlink:href="#DejaVuSans-35"/>
     <use xlink:href="#DejaVuSans-34" x="63.623047"/>
     <use xlink:href="#DejaVuSans-2e" x="127.246094"/>
     <use xlink:href="#DejaVuSans-34" x="159.033203"/>
    </g>
   </g>
   <g id="text_42">
    <!-- 41.0 -->
    <g transform="translate(91.331411 424.661189) rotate(-33.75) scale(0.14 -0.14)">
     <use xlink:href="#DejaVuSans-34"/>
     <use xlink:href="#DejaVuSans-31" x="63.623047"/>
     <use xlink:href="#DejaVuSans-2e" x="127.246094"/>
     <use xlink:href="#DejaVuSans-30" x="159.033203"/>
    </g>
   </g>
   <g id="text_43">
    <!-- 60.5 -->
    <g transform="translate(158.26775 489.46586) rotate(-56.25) scale(0.14 -0.14)">
     <use xlink:href="#DejaVuSans-36"/>
     <use xlink:href="#DejaVuSans-30" x="63.623047"/>
     <use xlink:href="#DejaVuSans-2e" x="127.246094"/>
     <use xlink:href="#DejaVuSans-35" x="159.033203"/>
    </g>
   </g>
   <g id="text_44">
    <!-- 86.7 -->
    <g transform="translate(244.908537 523.722142) rotate(-78.75) scale(0.14 -0.14)">
     <use xlink:href="#DejaVuSans-38"/>
     <use xlink:href="#DejaVuSans-36" x="63.623047"/>
     <use xlink:href="#DejaVuSans-2e" x="127.246094"/>
     <use xlink:href="#DejaVuSans-37" x="159.033203"/>
    </g>
   </g>
   <g id="text_45">
    <!-- 83.5 -->
    <g transform="translate(324.404376 493.149226) rotate(-281.25) scale(0.14 -0.14)">
     <use xlink:href="#DejaVuSans-38"/>
     <use xlink:href="#DejaVuSans-33" x="63.623047"/>
     <use xlink:href="#DejaVuSans-2e" x="127.246094"/>
     <use xlink:href="#DejaVuSans-35" x="159.033203"/>
    </g>
   </g>
   <g id="text_46">
    <!-- 81.5 -->
    <g transform="translate(399.808329 463.547393) rotate(-303.75) scale(0.14 -0.14)">
     <use xlink:href="#DejaVuSans-38"/>
     <use xlink:href="#DejaVuSans-31" x="63.623047"/>
     <use xlink:href="#DejaVuSans-2e" x="127.246094"/>
     <use xlink:href="#DejaVuSans-35" x="159.033203"/>
    </g>
   </g>
   <g id="text_47">
    <!-- 61.7 -->
    <g transform="translate(458.144367 407.343023) rotate(-326.25) scale(0.14 -0.14)">
     <use xlink:href="#DejaVuSans-36"/>
     <use xlink:href="#DejaVuSans-31" x="63.623047"/>
     <use xlink:href="#DejaVuSans-2e" x="127.246094"/>
     <use xlink:href="#DejaVuSans-37" x="159.033203"/>
    </g>
   </g>
   <g id="text_48">
    <!-- 67.4 -->
    <g transform="translate(490.531357 333.09272) rotate(-348.75) scale(0.14 -0.14)">
     <use xlink:href="#DejaVuSans-36"/>
     <use xlink:href="#DejaVuSans-37" x="63.623047"/>
     <use xlink:href="#DejaVuSans-2e" x="127.246094"/>
     <use xlink:href="#DejaVuSans-34" x="159.033203"/>
    </g>
   </g>
   <g id="text_49">
    <!-- MIM -->
    <g style="fill: #44bb99" transform="translate(128.968568 295.706111) scale(0.25 -0.25)">
     <defs>
      <path id="DejaVuSans-Bold-4d" d="M 588 4666 
L 2119 4666 
L 3181 2169 
L 4250 4666 
L 5778 4666 
L 5778 0 
L 4641 0 
L 4641 3413 
L 3566 897 
L 2803 897 
L 1728 3413 
L 1728 0 
L 588 0 
L 588 4666 
z
" transform="scale(0.015625)"/>
      <path id="DejaVuSans-Bold-49" d="M 588 4666 
L 1791 4666 
L 1791 0 
L 588 0 
L 588 4666 
z
" transform="scale(0.015625)"/>
     </defs>
     <use xlink:href="#DejaVuSans-Bold-4d"/>
     <use xlink:href="#DejaVuSans-Bold-49" x="99.511719"/>
     <use xlink:href="#DejaVuSans-Bold-4d" x="136.71875"/>
    </g>
   </g>
   <g id="text_50">
    <!-- ID -->
    <g style="fill: #77a9dd" transform="translate(401.869036 295.706111) scale(0.25 -0.25)">
     <defs>
      <path id="DejaVuSans-Bold-44" d="M 1791 3756 
L 1791 909 
L 2222 909 
Q 2959 909 3348 1275 
Q 3738 1641 3738 2338 
Q 3738 3031 3350 3393 
Q 2963 3756 2222 3756 
L 1791 3756 
z
M 588 4666 
L 1856 4666 
Q 2919 4666 3439 4514 
Q 3959 4363 4331 4000 
Q 4659 3684 4818 3271 
Q 4978 2859 4978 2338 
Q 4978 1809 4818 1395 
Q 4659 981 4331 666 
Q 3956 303 3431 151 
Q 2906 0 1856 0 
L 588 0 
L 588 4666 
z
" transform="scale(0.015625)"/>
     </defs>
     <use xlink:href="#DejaVuSans-Bold-49"/>
     <use xlink:href="#DejaVuSans-Bold-44" x="37.207031"/>
    </g>
   </g>
   <g id="text_51">
    <!-- MIM-Refiner -->
    <g style="fill: #ee8866" transform="translate(174.066263 149.921735) scale(0.33 -0.33)">
     <defs>
      <path id="DejaVuSans-Bold-2d" d="M 347 2297 
L 2309 2297 
L 2309 1388 
L 347 1388 
L 347 2297 
z
" transform="scale(0.015625)"/>
      <path id="DejaVuSans-Bold-52" d="M 2297 2597 
Q 2675 2597 2839 2737 
Q 3003 2878 3003 3200 
Q 3003 3519 2839 3656 
Q 2675 3794 2297 3794 
L 1791 3794 
L 1791 2597 
L 2297 2597 
z
M 1791 1766 
L 1791 0 
L 588 0 
L 588 4666 
L 2425 4666 
Q 3347 4666 3776 4356 
Q 4206 4047 4206 3378 
Q 4206 2916 3982 2619 
Q 3759 2322 3309 2181 
Q 3556 2125 3751 1926 
Q 3947 1728 4147 1325 
L 4800 0 
L 3519 0 
L 2950 1159 
Q 2778 1509 2601 1637 
Q 2425 1766 2131 1766 
L 1791 1766 
z
" transform="scale(0.015625)"/>
      <path id="DejaVuSans-Bold-65" d="M 4031 1759 
L 4031 1441 
L 1416 1441 
Q 1456 1047 1700 850 
Q 1944 653 2381 653 
Q 2734 653 3104 758 
Q 3475 863 3866 1075 
L 3866 213 
Q 3469 63 3072 -14 
Q 2675 -91 2278 -91 
Q 1328 -91 801 392 
Q 275 875 275 1747 
Q 275 2603 792 3093 
Q 1309 3584 2216 3584 
Q 3041 3584 3536 3087 
Q 4031 2591 4031 1759 
z
M 2881 2131 
Q 2881 2450 2695 2645 
Q 2509 2841 2209 2841 
Q 1884 2841 1681 2658 
Q 1478 2475 1428 2131 
L 2881 2131 
z
" transform="scale(0.015625)"/>
      <path id="DejaVuSans-Bold-66" d="M 2841 4863 
L 2841 4128 
L 2222 4128 
Q 1984 4128 1890 4042 
Q 1797 3956 1797 3744 
L 1797 3500 
L 2753 3500 
L 2753 2700 
L 1797 2700 
L 1797 0 
L 678 0 
L 678 2700 
L 122 2700 
L 122 3500 
L 678 3500 
L 678 3744 
Q 678 4316 997 4589 
Q 1316 4863 1984 4863 
L 2841 4863 
z
" transform="scale(0.015625)"/>
      <path id="DejaVuSans-Bold-69" d="M 538 3500 
L 1656 3500 
L 1656 0 
L 538 0 
L 538 3500 
z
M 538 4863 
L 1656 4863 
L 1656 3950 
L 538 3950 
L 538 4863 
z
" transform="scale(0.015625)"/>
      <path id="DejaVuSans-Bold-6e" d="M 4056 2131 
L 4056 0 
L 2931 0 
L 2931 347 
L 2931 1631 
Q 2931 2084 2911 2256 
Q 2891 2428 2841 2509 
Q 2775 2619 2662 2680 
Q 2550 2741 2406 2741 
Q 2056 2741 1856 2470 
Q 1656 2200 1656 1722 
L 1656 0 
L 538 0 
L 538 3500 
L 1656 3500 
L 1656 2988 
Q 1909 3294 2193 3439 
Q 2478 3584 2822 3584 
Q 3428 3584 3742 3212 
Q 4056 2841 4056 2131 
z
" transform="scale(0.015625)"/>
      <path id="DejaVuSans-Bold-72" d="M 3138 2547 
Q 2991 2616 2845 2648 
Q 2700 2681 2553 2681 
Q 2122 2681 1889 2404 
Q 1656 2128 1656 1613 
L 1656 0 
L 538 0 
L 538 3500 
L 1656 3500 
L 1656 2925 
Q 1872 3269 2151 3426 
Q 2431 3584 2822 3584 
Q 2878 3584 2943 3579 
Q 3009 3575 3134 3559 
L 3138 2547 
z
" transform="scale(0.015625)"/>
     </defs>
     <use xlink:href="#DejaVuSans-Bold-4d"/>
     <use xlink:href="#DejaVuSans-Bold-49" x="99.511719"/>
     <use xlink:href="#DejaVuSans-Bold-4d" x="136.71875"/>
     <use xlink:href="#DejaVuSans-Bold-2d" x="236.230469"/>
     <use xlink:href="#DejaVuSans-Bold-52" x="277.734375"/>
     <use xlink:href="#DejaVuSans-Bold-65" x="354.736328"/>
     <use xlink:href="#DejaVuSans-Bold-66" x="422.558594"/>
     <use xlink:href="#DejaVuSans-Bold-69" x="466.064453"/>
     <use xlink:href="#DejaVuSans-Bold-6e" x="500.341797"/>
     <use xlink:href="#DejaVuSans-Bold-65" x="571.533203"/>
     <use xlink:href="#DejaVuSans-Bold-72" x="639.355469"/>
    </g>
   </g>
  </g>
 </g>
 <defs>
  <clipPath id="p3c03bce491">
   <path d="M 522.604863 288.807674 
C 522.604863 257.959872 516.528518 227.412026 504.723576 198.912374 
C 492.918633 170.412721 475.614668 144.515508 453.801979 122.702818 
C 431.989289 100.890128 406.092075 83.586163 377.592423 71.78122 
C 349.09277 59.976278 318.544924 53.899933 287.697122 53.899933 
C 256.84932 53.899933 226.301475 59.976278 197.801822 71.78122 
C 169.302169 83.586163 143.404956 100.890128 121.592266 122.702818 
C 99.779576 144.515508 82.475612 170.412721 70.670669 198.912374 
C 58.865726 227.412026 52.789382 257.959872 52.789382 288.807674 
C 52.789382 319.655476 58.865726 350.203322 70.670669 378.702974 
C 82.475612 407.202627 99.779576 433.09984 121.592266 454.91253 
C 143.404956 476.72522 169.302169 494.029185 197.801822 505.834127 
C 226.301475 517.63907 256.84932 523.715414 287.697122 523.715414 
C 318.544924 523.715414 349.09277 517.63907 377.592423 505.834127 
C 406.092075 494.029185 431.989289 476.72522 453.801979 454.91253 
C 475.614668 433.09984 492.918633 407.202627 504.723576 378.702974 
C 516.528518 350.203322 522.604863 319.655476 522.604863 288.807674 
M 287.697122 288.807674 
C 287.697122 288.807674 287.697122 288.807674 287.697122 288.807674 
C 287.697122 288.807674 287.697122 288.807674 287.697122 288.807674 
C 287.697122 288.807674 287.697122 288.807674 287.697122 288.807674 
C 287.697122 288.807674 287.697122 288.807674 287.697122 288.807674 
C 287.697122 288.807674 287.697122 288.807674 287.697122 288.807674 
C 287.697122 288.807674 287.697122 288.807674 287.697122 288.807674 
C 287.697122 288.807674 287.697122 288.807674 287.697122 288.807674 
C 287.697122 288.807674 287.697122 288.807674 287.697122 288.807674 
C 287.697122 288.807674 287.697122 288.807674 287.697122 288.807674 
C 287.697122 288.807674 287.697122 288.807674 287.697122 288.807674 
C 287.697122 288.807674 287.697122 288.807674 287.697122 288.807674 
C 287.697122 288.807674 287.697122 288.807674 287.697122 288.807674 
C 287.697122 288.807674 287.697122 288.807674 287.697122 288.807674 
C 287.697122 288.807674 287.697122 288.807674 287.697122 288.807674 
C 287.697122 288.807674 287.697122 288.807674 287.697122 288.807674 
C 287.697122 288.807674 287.697122 288.807674 287.697122 288.807674 
z
"/>
  </clipPath>
 </defs>
</svg>
